<?xml version="1.0"?>
<svg xmlns="http://www.w3.org/2000/svg" xmlns:xlink="http://www.w3.org/1999/xlink" xmlns:svgjs="http://svgjs.com/svgjs" version="1.1" width="512" height="512" x="0" y="0" viewBox="0 0 420.2 420.2" style="enable-background:new 0 0 512 512" xml:space="preserve" class="">
	<g>
		<g xmlns="http://www.w3.org/2000/svg">
			<g>
				<path d="M354.3,127.1c-0.1,0-0.1,0-0.2,0h-58V83.2c0-45.9-37.6-83.2-83.5-83.2c-45.9,0-83.5,37.3-83.5,83.2v43.9h-63    c-5.4-0.1-9.9,4.2-10,9.6c0,0.1,0,0.1,0,0.2v233.4c0,27.6,22.4,49.9,50,49.9h208c27.6,0,50-22.3,50-49.9V136.9    C364.1,131.5,359.7,127.1,354.3,127.1z M149.1,83.2c0-34.9,28.6-63.2,63.5-63.2c34.9,0,63.5,28.3,63.5,63.2v43.9h-127V83.2z     M128.1,259.1h74c5.5,0,10,4.5,10,10s-4.5,10-10,10h-74c-5.5,0-10-4.5-10-10S122.6,259.1,128.1,259.1z M292.1,329.1h-164    c-5.5,0-10-4.5-10-10s4.5-10,10-10h164c5.5,0,10,4.5,10,10S297.6,329.1,292.1,329.1z" fill="#fff" data-original="#000000" style="" />
			</g>
		</g>
		<g xmlns="http://www.w3.org/2000/svg">
		</g>
		<g xmlns="http://www.w3.org/2000/svg">
		</g>
		<g xmlns="http://www.w3.org/2000/svg">
		</g>
		<g xmlns="http://www.w3.org/2000/svg">
		</g>
		<g xmlns="http://www.w3.org/2000/svg">
		</g>
		<g xmlns="http://www.w3.org/2000/svg">
		</g>
		<g xmlns="http://www.w3.org/2000/svg">
		</g>
		<g xmlns="http://www.w3.org/2000/svg">
		</g>
		<g xmlns="http://www.w3.org/2000/svg">
		</g>
		<g xmlns="http://www.w3.org/2000/svg">
		</g>
		<g xmlns="http://www.w3.org/2000/svg">
		</g>
		<g xmlns="http://www.w3.org/2000/svg">
		</g>
		<g xmlns="http://www.w3.org/2000/svg">
		</g>
		<g xmlns="http://www.w3.org/2000/svg">
		</g>
		<g xmlns="http://www.w3.org/2000/svg">
		</g>
	</g>
</svg>
