<svg width="211" height="230" viewBox="0 0 211 230" fill="none" xmlns="http://www.w3.org/2000/svg">
<g clip-path="url(#clip0)" filter="url(#filter0_d)">
<path d="M144.447 65.2409C108.161 29.7339 68.3727 11.1008 55.5734 23.6221C54.169 25.0619 53.1355 26.808 52.5585 28.7168L52.3526 28.5152L40.1291 77.5378L27.9572 126.414L13.5288 184.288L4.39517 220.94L58.4713 200.914L127.252 175.445L182.124 155.126L182.058 155.062C183.895 154.489 185.576 153.516 186.974 152.217C199.773 139.691 180.734 100.753 144.447 65.2409Z" fill="#DD1C4B"/>
<path d="M144.447 65.2267C108.162 29.7164 68.3726 11.0827 55.575 23.607C42.7775 36.1313 61.8178 75.071 98.1028 110.581C134.388 146.092 174.177 164.725 186.975 152.201C199.772 139.677 180.732 100.737 144.447 65.2267Z" fill="#D1E3EE"/>
<path d="M177.143 156.712C170.591 156.824 164.091 155.562 158.08 153.01L113.231 169.618L44.4268 195.064L7.53178 208.726L4.39517 221.311L58.4713 201.285L127.252 175.817L177.611 157.17L177.143 156.712Z" fill="#B21D48"/>
<path d="M41.557 83.8649C41.0327 81.904 40.5645 79.9248 40.1291 77.9089L27.9572 126.785L28.8935 137.959C30.9341 161.783 41.3914 184.166 58.4666 201.263L127.252 175.817C126.878 175.702 126.489 175.62 126.114 175.496C84.4051 160.191 52.8792 126.027 41.557 83.8649Z" fill="white"/>
<path d="M127.252 175.817C126.878 175.702 126.489 175.62 126.114 175.496C121.608 173.827 117.195 171.926 112.894 169.801L50.9388 192.741C53.2877 195.722 55.8023 198.575 58.4713 201.285L127.252 175.817Z" fill="#F6F6E7"/>
</g>
<defs>
<filter id="filter0_d" x="0" y="0.929672" width="214.147" height="229.07" filterUnits="userSpaceOnUse" color-interpolation-filters="sRGB">
<feFlood flood-opacity="0" result="BackgroundImageFix"/>
<feColorMatrix in="SourceAlpha" type="matrix" values="0 0 0 0 0 0 0 0 0 0 0 0 0 0 0 0 0 0 127 0"/>
<feOffset dy="4"/>
<feGaussianBlur stdDeviation="2"/>
<feColorMatrix type="matrix" values="0 0 0 0 0 0 0 0 0 0 0 0 0 0 0 0 0 0 0.25 0"/>
<feBlend mode="normal" in2="BackgroundImageFix" result="effect1_dropShadow"/>
<feBlend mode="normal" in="SourceGraphic" in2="effect1_dropShadow" result="shape"/>
</filter>
<clipPath id="clip0">
<rect width="206.147" height="221.07" fill="white" transform="translate(4 0.929672)"/>
</clipPath>
</defs>
</svg>
