<?xml version="1.0"?>
<svg xmlns="http://www.w3.org/2000/svg" xmlns:xlink="http://www.w3.org/1999/xlink" xmlns:svgjs="http://svgjs.com/svgjs" version="1.1" width="512" height="512" x="0" y="0" viewBox="0 0 512 512" style="enable-background:new 0 0 512 512" xml:space="preserve" class="">
	<g>
		<g xmlns="http://www.w3.org/2000/svg">
			<g>
				<g>
					<path d="M213.333,170.667c-17.646,0-32,14.354-32,32v64c0,5.896,4.771,10.667,10.667,10.667s10.667-4.771,10.667-10.667V256H224     v10.667c0,5.896,4.771,10.667,10.667,10.667c5.896,0,10.667-4.771,10.667-10.667v-64     C245.333,185.021,230.979,170.667,213.333,170.667z M224,234.667h-21.333v-32c0-5.885,4.781-10.667,10.667-10.667     c5.885,0,10.667,4.781,10.667,10.667V234.667z" fill="#fff" data-original="#000000" style="" />
					<path d="M298.667,170.667h-21.333c-5.896,0-10.667,4.771-10.667,10.667v85.333c0,5.896,4.771,10.667,10.667,10.667h21.333     c17.646,0,32-14.354,32-32v-42.667C330.667,185.021,316.313,170.667,298.667,170.667z M309.333,245.333     c0,5.885-4.781,10.667-10.667,10.667H288v-64h10.667c5.885,0,10.667,4.781,10.667,10.667V245.333z" fill="#fff" data-original="#000000" style="" />
					<circle cx="373.333" cy="74.667" r="10.667" fill="#fff" data-original="#000000" style="" />
					<path d="M405.333,0H106.667C83.135,0,64,19.135,64,42.667v426.667C64,492.865,83.135,512,106.667,512h298.667     C428.865,512,448,492.865,448,469.333V42.667C448,19.135,428.865,0,405.333,0z M256,480c-11.76,0-21.333-9.573-21.333-21.333     s9.573-21.333,21.333-21.333s21.333,9.573,21.333,21.333S267.76,480,256,480z M106.667,405.333V42.667h298.667l0.026,362.667     H106.667z" fill="#fff" data-original="#000000" style="" />
				</g>
			</g>
		</g>
		<g xmlns="http://www.w3.org/2000/svg">
		</g>
		<g xmlns="http://www.w3.org/2000/svg">
		</g>
		<g xmlns="http://www.w3.org/2000/svg">
		</g>
		<g xmlns="http://www.w3.org/2000/svg">
		</g>
		<g xmlns="http://www.w3.org/2000/svg">
		</g>
		<g xmlns="http://www.w3.org/2000/svg">
		</g>
		<g xmlns="http://www.w3.org/2000/svg">
		</g>
		<g xmlns="http://www.w3.org/2000/svg">
		</g>
		<g xmlns="http://www.w3.org/2000/svg">
		</g>
		<g xmlns="http://www.w3.org/2000/svg">
		</g>
		<g xmlns="http://www.w3.org/2000/svg">
		</g>
		<g xmlns="http://www.w3.org/2000/svg">
		</g>
		<g xmlns="http://www.w3.org/2000/svg">
		</g>
		<g xmlns="http://www.w3.org/2000/svg">
		</g>
		<g xmlns="http://www.w3.org/2000/svg">
		</g>
	</g>
</svg>
